# xmcd CD database file
#
# Track frame offsets:
#	150
#	5292
#	25365
#	39936
#	62000
#	85554
#	98168
#	106418
#	132609
#	140000
#	144504
#	163176
#	185219
#	194720
#
# Disc length: 2985 seconds
#
# Revision: 0
# Processed by: cddbd v1.5.1PL0 Copyright (c) Steve Scherf et al.
# Submitted via: CDex 1.51
#
DISCID=c80ba70e
DTITLE=Mark de Clive-lowe - Tide's Arising
DYEAR=2004
DGENRE=Jazz
TTITLE0=Masina's World
TTITLE1=Slide
TTITLE2=Traveling
TTITLE3=State Of The Mental
TTITLE4=Quintessential
TTITLE5=Syndrome
TTITLE6=Pino and Mashi
TTITLE7=Tide's Arising
TTITLE8=Sila's Theme
TTITLE9=Traveling(interlude)
TTITLE10=Heaven
TTITLE11=4.Y.V.
TTITLE12=Heaven Part II
TTITLE13=Sanctuary (bonus track)
EXTD=YEAR: 2004
EXTT0=
EXTT1=
EXTT2=
EXTT3=
EXTT4=
EXTT5=
EXTT6=
EXTT7=
EXTT8=
EXTT9=
EXTT10=
EXTT11=
EXTT12=
EXTT13=
PLAYORDER=
